HIERARCHY
ROOT joint_Root
{
	OFFSET 0.0 0.0 0.0
	CHANNELS 6 Xposition Yposition Zposition Zrotation Xrotation Yrotation 
	JOINT Hips
	{
		OFFSET 4.5925 91.4895 -427.239
		CHANNELS 6 Xposition Yposition Zposition Zrotation Xrotation Yrotation 
		JOINT Spine
		{
			OFFSET 15.7357 0.0 0.0
			CHANNELS 6 Xposition Yposition Zposition Zrotation Xrotation Yrotation 
			JOINT Chest
			{
				OFFSET 8.98455 -0.406207 0.0
				CHANNELS 6 Xposition Yposition Zposition Zrotation Xrotation Yrotation 
				JOINT Neck
				{
					OFFSET 16.3773 0.0 0.0
					CHANNELS 6 Xposition Yposition Zposition Zrotation Xrotation Yrotation 
					JOINT Head
					{
						OFFSET 6.45672 0.0 0.0
						CHANNELS 6 Xposition Yposition Zposition Zrotation Xrotation Yrotation 
						End Site
						{
							OFFSET 0.0 0.0 0.0
						}
					}
				}
				JOINT Shoulder_L
				{
					OFFSET 12.9942 -0.242716 4.98039
					CHANNELS 6 Xposition Yposition Zposition Zrotation Xrotation Yrotation 
					JOINT UpperArm_L
					{
						OFFSET 5.34809 0.0 0.0
						CHANNELS 6 Xposition Yposition Zposition Zrotation Xrotation Yrotation 
						JOINT LowerArm_L
						{
							OFFSET 24.3286 1.87007e-05 0.0
							CHANNELS 6 Xposition Yposition Zposition Zrotation Xrotation Yrotation 
							JOINT Hand_L
							{
								OFFSET 22.2916 0.0 0.0
								CHANNELS 6 Xposition Yposition Zposition Zrotation Xrotation Yrotation 
								End Site
								{
									OFFSET 0.0 0.0 0.0
								}
							}
						}
					}
				}
				JOINT Shoulder_R
				{
					OFFSET 12.9945 -0.242716 -4.98039
					CHANNELS 6 Xposition Yposition Zposition Zrotation Xrotation Yrotation 
					JOINT UpperArm_R
					{
						OFFSET -5.34813 0.0 0.0
						CHANNELS 6 Xposition Yposition Zposition Zrotation Xrotation Yrotation 
						JOINT LowerArm_R
						{
							OFFSET -24.3289 0.000322201 0.0
							CHANNELS 6 Xposition Yposition Zposition Zrotation Xrotation Yrotation 
							JOINT Hand_R
							{
								OFFSET -22.2915 -0.000108084 0.0
								CHANNELS 6 Xposition Yposition Zposition Zrotation Xrotation Yrotation 
								End Site
								{
									OFFSET 0.0 0.0 0.0
								}
							}
						}
					}
				}
			}
		}
		JOINT UpperLeg_L
		{
			OFFSET -2.19248 -6.46944 0.0
			CHANNELS 6 Xposition Yposition Zposition Zrotation Xrotation Yrotation 
			JOINT LowerLeg_L
			{
				OFFSET 39.0811 0.0 -1.23785e-05
				CHANNELS 6 Xposition Yposition Zposition Zrotation Xrotation Yrotation 
				JOINT Foot_L
				{
					OFFSET 40.9854 0.0 -1.26872e-05
					CHANNELS 6 Xposition Yposition Zposition Zrotation Xrotation Yrotation 
					JOINT Toes_L
					{
						OFFSET 11.7543 0.0 0.0
						CHANNELS 6 Xposition Yposition Zposition Zrotation Xrotation Yrotation 
						End Site
						{
							OFFSET 0.0 0.0 0.0
						}
					}
				}
			}
		}
		JOINT UpperLeg_R
		{
			OFFSET -2.19251 6.46944 0.0
			CHANNELS 6 Xposition Yposition Zposition Zrotation Xrotation Yrotation 
			JOINT LowerLeg_R
			{
				OFFSET -39.0811 -0.00228153 -0.0401928
				CHANNELS 6 Xposition Yposition Zposition Zrotation Xrotation Yrotation 
				JOINT Foot_R
				{
					OFFSET -40.9854 0.0 0.0
					CHANNELS 6 Xposition Yposition Zposition Zrotation Xrotation Yrotation 
					JOINT Toes_R
					{
						OFFSET -11.7543 0.0 0.0
						CHANNELS 6 Xposition Yposition Zposition Zrotation Xrotation Yrotation 
						End Site
						{
							OFFSET 0.0 0.0 0.0
						}
					}
				}
			}
		}
	}
}
MOTION
Frames:	4
Frame Time:	0.0333333
0.000000 0.000000 0.000000 0.000000 0.000000 -0.000000 1.330210 86.689000 -0.365997 89.386800 1.453760 10.262700 15.735700 0.000005 -0.000001 98.274800 81.805500 -98.882700 8.984550 -0.406207 -0.000000 8.470340 2.343850 -1.388530 16.377300 -0.000001 -0.000001 -0.053938 -5.372320 2.096350 6.456720 -0.000001 -0.000000 -3.267430 -9.198240 5.066570 12.994200 -0.242716 4.980390 -92.741400 7.208180 -69.110900 5.348090 -0.000007 -0.000001 -68.033100 4.906180 -1.259040 24.328600 0.000019 0.000005 2.027320 4.802170 -22.913500 22.291600 -0.000001 0.000005 6.917450 4.728270 12.663500 12.994500 -0.242716 -4.980390 88.641800 7.918560 -80.234300 -5.348130 -0.000001 -0.000004 -65.808800 30.099400 -8.963150 -24.328900 0.000322 -0.000009 0.177458 0.565067 -17.566300 -22.291500 -0.000108 -0.000004 16.419900 5.390090 -2.614080 -2.192480 -6.469440 -0.000000 -175.658000 -9.979400 -9.046370 39.081100 -0.000007 -0.000012 -0.376556 0.334554 48.381100 40.985400 -0.000006 -0.000013 2.341230 5.846930 -79.264500 11.754300 -0.000000 0.000003 -0.000289 -0.002518 -16.671500 -2.192510 6.469440 -0.000001 175.001000 14.647300 172.218000 -39.081100 -0.002282 -0.040193 0.062159 -0.052088 48.515300 -40.985400 0.000008 0.000006 4.297130 3.961920 -79.009600 -11.754300 -0.000006 -0.000006 -0.502361 -0.617547 -17.565800
0.000000 0.000000 0.000000 0.000000 0.000000 -0.000000 1.923200 88.677800 0.266674 89.495400 -0.684951 8.347140 15.735700 0.000005 -0.000001 95.761000 83.548800 -95.569200 8.984550 -0.406207 -0.000000 5.070040 1.287960 0.326176 16.377300 -0.000001 -0.000001 1.744500 -4.310520 2.010870 6.456720 -0.000001 -0.000000 -1.849590 -7.213950 3.910930 12.994200 -0.242716 4.980390 -92.158300 5.213330 -67.467000 5.348090 -0.000007 -0.000001 -64.378800 -5.048790 -1.112460 24.328600 0.000019 0.000005 0.793979 2.041540 -21.257600 22.291600 -0.000001 0.000005 3.838650 4.701840 13.123900 12.994500 -0.242716 -4.980390 88.646600 6.871420 -78.828200 -5.348130 -0.000001 -0.000004 -66.900700 29.008300 -8.589400 -24.328900 0.000322 -0.000009 0.802340 2.495440 -17.839700 -22.291500 -0.000108 -0.000004 14.543800 5.394040 -2.751750 -2.192480 -6.469440 -0.000000 -175.949000 -12.881300 -6.308750 39.081100 -0.000007 -0.000012 -0.278583 0.324917 40.610200 40.985400 -0.000006 -0.000013 2.522700 6.531220 -76.060700 11.754300 -0.000000 0.000003 -0.000196 -0.001817 -16.646100 -2.192510 6.469440 -0.000001 175.072000 13.227500 173.667000 -39.081100 -0.002282 -0.040193 0.037304 -0.038372 41.568200 -40.985400 0.000008 0.000006 3.717690 5.328700 -74.632400 -11.754300 -0.000006 -0.000006 -0.603185 -0.736359 -18.445700
0.000000 0.000000 0.000000 0.000000 0.000000 -0.000000 2.151570 90.158600 0.629310 89.110400 -2.188510 6.122930 15.735700 0.000005 -0.000001 96.949500 85.180900 -95.733100 8.984550 -0.406207 -0.000000 1.791240 1.102090 2.413480 16.377300 -0.000001 -0.000001 3.810370 -3.885380 1.594570 6.456720 -0.000001 -0.000000 -1.123540 -5.907990 2.412040 12.994200 -0.242716 4.980390 -91.534800 3.489600 -66.240100 5.348090 -0.000007 -0.000001 -58.865100 -18.839000 -7.507900 24.328600 0.000019 0.000005 0.326948 0.723564 -24.604800 22.291600 -0.000001 0.000005 8.693310 4.699000 13.213500 12.994500 -0.242716 -4.980390 88.670300 5.766710 -76.991700 -5.348130 -0.000001 -0.000004 -67.701700 26.548300 -6.282900 -24.328900 0.000322 -0.000009 0.633021 1.574970 -22.005700 -22.291500 -0.000108 -0.000004 13.043900 5.424730 -3.763950 -2.192480 -6.469440 -0.000000 -175.935000 -14.656400 -4.831580 39.081100 -0.000007 -0.000012 -0.205436 0.304177 34.034800 40.985400 -0.000006 -0.000013 2.327280 6.937260 -73.137300 11.754300 -0.000000 0.000003 -0.000126 -0.001255 -16.625500 -2.192510 6.469440 -0.000001 175.722000 13.002600 174.210000 -39.081100 -0.002282 -0.040193 0.021288 -0.025077 35.668300 -40.985400 0.000008 0.000006 3.433850 7.009540 -70.556500 -11.754300 -0.000006 -0.000006 -0.894166 -1.066810 -19.329400
0.000000 0.000000 0.000000 0.000000 0.000000 -0.000000 2.186250 90.821000 0.853589 89.138700 -3.031330 4.976360 15.735700 0.000005 -0.000001 99.291900 86.047200 -97.550600 8.984550 -0.406207 -0.000000 0.020834 1.158510 3.480370 16.377300 -0.000001 -0.000001 5.011370 -3.545830 2.006910 6.456720 -0.000001 -0.000000 -0.412615 -5.073590 1.201240 12.994200 -0.242716 4.980390 -90.886300 2.048630 -66.607200 5.348090 -0.000007 -0.000001 -52.077000 -28.870500 -19.303200 24.328600 0.000019 0.000005 -1.576250 -2.637720 -30.854200 22.291600 -0.000001 0.000005 14.761300 4.864060 10.105800 12.994500 -0.242716 -4.980390 88.645900 5.547890 -76.261200 -5.348130 -0.000001 -0.000004 -67.220100 25.060500 -4.315100 -24.328900 0.000322 -0.000009 -1.054850 -2.079870 -26.827800 -22.291500 -0.000108 -0.000004 12.911200 5.457930 -4.923290 -2.192480 -6.469440 -0.000000 -176.469000 -13.924500 -4.030460 39.081100 -0.000007 -0.000012 -0.173569 0.295013 30.470400 40.985400 -0.000006 -0.000013 1.735290 5.667130 -71.528600 11.754300 -0.000000 0.000003 -0.000114 -0.001152 -16.621600 -2.192510 6.469440 -0.000001 175.438000 15.141300 175.304000 -39.081100 -0.002282 -0.040193 0.016689 -0.021696 31.683800 -40.985400 0.000008 0.000006 4.018350 9.810560 -69.809200 -11.754300 -0.000006 -0.000006 -0.433275 -0.539696 -18.751500
